# xmcd
# 
# Track frame offsets:
#     150
#     12761
#     24888
#     37264
#     50637
#     64672
#     78764
#     89048
#     103215
#     116526
#     129937
#     144173
#     158557
#     171011
#     186608
#     200056
#     213231
#     224975
#     237400
#     251494
# 
# Disc length: 3520
# 
# Revision: 2
# Processed by: cddbd v1.5.2PL0 Copyright (c) Steve Scherf et al.
# Submitted via: BonkEnc v1.0.8
# 
DISCID=220dbe14
DTITLE=200 Blues Songs - Goin' Mad Blues [CD 3)
DYEAR=2006
DGENRE=Blues
TTITLE0=Blind John Davis - St. Louis Blues
TTITLE1=Blind Boy Fuller and Sonny Terry - Pistol Slapper Blues
TTITLE2=Lightnin' Hopkins - Woman Woman
TTITLE3=Big Bill Broonzy - Big Billie Blues
TTITLE4=Jimmy Yancey - P.L.K. Special
TTITLE5=Bessie Smith - Bleeding Hearted Blues
TTITLE6=Robert Johnson - Little Queen of Spades
TTITLE7=Arthur 'Big Boy' Crudup - Cool Disposition
TTITLE8=Bukka White - Black Train Blues
TTITLE9=Big Joe Turner - Watch That Jive
TTITLE10=Kokomo Arnold - Big Ship Blues
TTITLE11=Big Joe Williams - Stack O' Dollars
TTITLE12=John Lee 'Sonny Boy' Williamson - My Black Name Blues
TTITLE13=Ma Rainey - Goodbye Daddy Blues
TTITLE14=Skip James - Devil Got My Woman
TTITLE15=T-Bone Walker - Mean Old World
TTITLE16=Sleepy John Estes - Clean Up At Home
TTITLE17=Brownie McGhee - Step It Up And Go No. 2
TTITLE18=Leadbelly - Four Day Worry Blues
TTITLE19=Blind Willie McTell - You Was Born To Die
EXTD=
EXTT0=
EXTT1=
EXTT2=
EXTT3=
EXTT4=
EXTT5=
EXTT6=
EXTT7=
EXTT8=
EXTT9=
EXTT10=
EXTT11=
EXTT12=
EXTT13=
EXTT14=
EXTT15=
EXTT16=
EXTT17=
EXTT18=
EXTT19=
PLAYORDER=
